# xmcd
#
# Track frame offsets:
#   150
#   16352
#   32669
#   49918
#   64525
#   82760
#   98849
#   118828
#   141113
#   158138
#   176027
#   195563
#   210166
#   225449
#   249874
#   269512
#   284123
#   300451
#   319351
#   340774
#
# Disc length: 4787 seconds
#
# Revision: 0
# Processed by: cddbd v1.5.1PL2 Copyright (c) Steve Scherf et al.
# Submitted via: GXTranscoder 2.0.1939
#
DISCID=1112b114
DTITLE=lavida loca - tru
DYEAR=1900
DGENRE=Dance
TTITLE0=jt
TTITLE1=jjj
TTITLE2=jj
TTITLE3=jjjj
TTITLE4=aa
TTITLE5=aaa
TTITLE6=d
TTITLE7=fvg
TTITLE8=f
TTITLE9=zu
TTITLE10=lou
TTITLE11=lu
TTITLE12=lug
TTITLE13=mbn
TTITLE14=,hvb
TTITLE15=zui
TTITLE16=rui
TTITLE17=ttt
TTITLE18=t
TTITLE19=tt
EXTD=
EXTT0=
EXTT1=
EXTT2=
EXTT3=
EXTT4=
EXTT5=
EXTT6=
EXTT7=
EXTT8=
EXTT9=
EXTT10=
EXTT11=
EXTT12=
EXTT13=
EXTT14=
EXTT15=
EXTT16=
EXTT17=
EXTT18=
EXTT19=
PLAYORDER=
